# xmcd
#
# Track frame offsets:
#	150
#	18144
#	34213
#	55436
#	72657
#	91176
#	111456
#	132196
#	149425
#	164020
#	177121
#	195873
#	217254
#
# Disc length: 3236 seconds
#
# Revision: 1
# Processed by: cddbd v1.5.2PL0 Copyright (c) Steve Scherf et al.
# Submitted via: audiograbber 1.83.01
#
DISCID=c30ca20d
DTITLE=Fred Guggenberger - Let me in
DYEAR=1900
DGENRE=
TTITLE0=Going to Hollywood
TTITLE1=Just like the first day
TTITLE2=Who killed Alex?
TTITLE3=Lie to me
TTITLE4=I'll be there for you
TTITLE5=Forever No1
TTITLE6=Free
TTITLE7=Duelling Guitars
TTITLE8=Fools Game
TTITLE9=Picture of me
TTITLE10=Liar
TTITLE11=My angel brought me to satans throne
TTITLE12=Warpreacher
EXTD=
EXTT0=
EXTT1=
EXTT2=
EXTT3=
EXTT4=
EXTT5=
EXTT6=
EXTT7=
EXTT8=
EXTT9=
EXTT10=
EXTT11=
EXTT12=
PLAYORDER=
